<?xml version="1.0" encoding="UTF-8" standalone="no"?>
<!DOCTYPE svg PUBLIC "-//W3C//DTD SVG 1.1//EN"
 "http://www.w3.org/Graphics/SVG/1.1/DTD/svg11.dtd">
<!-- Generated by graphviz version 2.43.0 (0)
 -->
<!-- Title: Azure VM + NSG + Firewall Pages: 1 -->
<svg width="1180pt" height="875pt"
 viewBox="0.00 0.00 1180.00 874.50" xmlns="http://www.w3.org/2000/svg" xmlns:xlink="http://www.w3.org/1999/xlink">
<g id="graph0" class="graph" transform="scale(1 1) rotate(0) translate(144 730.5)">
<title>Azure VM + NSG + Firewall</title>
<polygon fill="white" stroke="transparent" points="-144,144 -144,-730.5 1036,-730.5 1036,144 -144,144"/>
<text text-anchor="middle" x="446" y="-9" font-family="Sans-Serif" font-size="15.00" fill="#2d3436">Azure VM + NSG + Firewall</text>
<g id="clust1" class="cluster">
<title>cluster_Hub VNet</title>
<path fill="#e5f5fd" stroke="#aeb6be" d="M20,-261C20,-261 339,-261 339,-261 345,-261 351,-267 351,-273 351,-273 351,-424 351,-424 351,-430 345,-436 339,-436 339,-436 20,-436 20,-436 14,-436 8,-430 8,-424 8,-424 8,-273 8,-273 8,-267 14,-261 20,-261"/>
<text text-anchor="middle" x="45" y="-422.4" font-family="Sans-Serif" font-size="12.00" fill="#2d3436">Hub VNet</text>
</g>
<g id="clust2" class="cluster">
<title>cluster_Spoke VNet</title>
<path fill="#e5f5fd" stroke="#aeb6be" d="M20,-33C20,-33 872,-33 872,-33 878,-33 884,-39 884,-45 884,-45 884,-241 884,-241 884,-247 878,-253 872,-253 872,-253 20,-253 20,-253 14,-253 8,-247 8,-241 8,-241 8,-45 8,-45 8,-39 14,-33 20,-33"/>
<text text-anchor="middle" x="51" y="-239.4" font-family="Sans-Serif" font-size="12.00" fill="#2d3436">Spoke VNet</text>
</g>
<!-- 5aa3641beff340ee9aaa1df77f604579 -->
<g id="node1" class="node">
<title>5aa3641beff340ee9aaa1df77f604579</title>
<image xlink:href="/usr/local/python/current/lib/python3.14/site-packages/resources/azure/network/public-ip-addresses.png" width="101px" height="101px" preserveAspectRatio="xMinYMin meet" x="16" y="-568.5"/>
<text text-anchor="middle" x="66.5" y="-453.1" font-family="Sans-Serif" font-size="13.00" fill="#2d3436">Internet</text>
</g>
<!-- f12fcd468ac24918808487b686d3b366 -->
<g id="node3" class="node">
<title>f12fcd468ac24918808487b686d3b366</title>
<image xlink:href="/usr/local/python/current/lib/python3.14/site-packages/resources/azure/network/firewall.png" width="101px" height="101px" preserveAspectRatio="xMinYMin meet" x="242" y="-388.5"/>
<text text-anchor="middle" x="292.5" y="-273.1" font-family="Sans-Serif" font-size="13.00" fill="#2d3436">Azure Firewall</text>
</g>
<!-- 5aa3641beff340ee9aaa1df77f604579&#45;&gt;f12fcd468ac24918808487b686d3b366 -->
<g id="edge6" class="edge">
<title>5aa3641beff340ee9aaa1df77f604579&#45;&gt;f12fcd468ac24918808487b686d3b366</title>
<path fill="none" stroke="#7b8894" d="M117.05,-518C183.8,-518 293,-518 293,-518 293,-518 293,-416.56 293,-416.56"/>
<polygon fill="#7b8894" stroke="#7b8894" points="296.5,-416.56 293,-406.56 289.5,-416.56 296.5,-416.56"/>
<text text-anchor="middle" x="179.5" y="-521.6" font-family="Sans-Serif" font-size="13.00" fill="#2d3436">HTTPS 443</text>
</g>
<!-- b99ec3fc3c3d4b69aee67b99cac03c78 -->
<g id="node2" class="node">
<title>b99ec3fc3c3d4b69aee67b99cac03c78</title>
<image xlink:href="/usr/local/python/current/lib/python3.14/site-packages/resources/azure/network/virtual-networks.png" width="101px" height="101px" preserveAspectRatio="xMinYMin meet" x="16" y="-388.5"/>
<text text-anchor="middle" x="66.5" y="-273.1" font-family="Sans-Serif" font-size="13.00" fill="#2d3436">Hub VNet</text>
</g>
<!-- b99ec3fc3c3d4b69aee67b99cac03c78&#45;&gt;f12fcd468ac24918808487b686d3b366 -->
<g id="edge1" class="edge">
<title>b99ec3fc3c3d4b69aee67b99cac03c78&#45;&gt;f12fcd468ac24918808487b686d3b366</title>
<path fill="none" stroke="#7b8894" d="M117.22,-338C154.44,-338 204.77,-338 241.95,-338"/>
</g>
<!-- caef0300993b47a1be50734b0119e10a -->
<g id="node6" class="node">
<title>caef0300993b47a1be50734b0119e10a</title>
<image xlink:href="/usr/local/python/current/lib/python3.14/site-packages/resources/azure/network/network-security-groups-classic.png" width="101px" height="101px" preserveAspectRatio="xMinYMin meet" x="463" y="-205.5"/>
<text text-anchor="middle" x="513.5" y="-90.1" font-family="Sans-Serif" font-size="13.00" fill="#2d3436">NSG</text>
</g>
<!-- f12fcd468ac24918808487b686d3b366&#45;&gt;caef0300993b47a1be50734b0119e10a -->
<g id="edge7" class="edge">
<title>f12fcd468ac24918808487b686d3b366&#45;&gt;caef0300993b47a1be50734b0119e10a</title>
<path fill="none" stroke="#7b8894" d="M343.04,-338C408.41,-338 514,-338 514,-338 514,-338 514,-233.66 514,-233.66"/>
<polygon fill="#7b8894" stroke="#7b8894" points="517.5,-233.66 514,-223.66 510.5,-233.66 517.5,-233.66"/>
<text text-anchor="middle" x="403" y="-274.6" font-family="Sans-Serif" font-size="13.00" fill="#2d3436">Allow rule</text>
</g>
<!-- a3dd2b0363344b249fff0c82ead5875a -->
<g id="node4" class="node">
<title>a3dd2b0363344b249fff0c82ead5875a</title>
<image xlink:href="/usr/local/python/current/lib/python3.14/site-packages/resources/azure/network/virtual-networks.png" width="101px" height="101px" preserveAspectRatio="xMinYMin meet" x="16" y="-205.5"/>
<text text-anchor="middle" x="66.5" y="-90.1" font-family="Sans-Serif" font-size="13.00" fill="#2d3436">Spoke VNet</text>
</g>
<!-- 5d39073c0bb1435bb4f80e2f09cbdbb2 -->
<g id="node5" class="node">
<title>5d39073c0bb1435bb4f80e2f09cbdbb2</title>
<image xlink:href="/usr/local/python/current/lib/python3.14/site-packages/resources/azure/network/subnets.png" width="101px" height="101px" preserveAspectRatio="xMinYMin meet" x="242" y="-205.5"/>
<text text-anchor="middle" x="292.5" y="-90.1" font-family="Sans-Serif" font-size="13.00" fill="#2d3436">App Subnet</text>
</g>
<!-- a3dd2b0363344b249fff0c82ead5875a&#45;&gt;5d39073c0bb1435bb4f80e2f09cbdbb2 -->
<g id="edge2" class="edge">
<title>a3dd2b0363344b249fff0c82ead5875a&#45;&gt;5d39073c0bb1435bb4f80e2f09cbdbb2</title>
<path fill="none" stroke="#7b8894" d="M117.22,-155C154.44,-155 204.77,-155 241.95,-155"/>
</g>
<!-- 5d39073c0bb1435bb4f80e2f09cbdbb2&#45;&gt;caef0300993b47a1be50734b0119e10a -->
<g id="edge3" class="edge">
<title>5d39073c0bb1435bb4f80e2f09cbdbb2&#45;&gt;caef0300993b47a1be50734b0119e10a</title>
<path fill="none" stroke="#7b8894" d="M343.2,-155C379.01,-155 426.81,-155 462.65,-155"/>
</g>
<!-- 7f7d2024c26b4cdc84e488715b2f5536 -->
<g id="node7" class="node">
<title>7f7d2024c26b4cdc84e488715b2f5536</title>
<image xlink:href="/usr/local/python/current/lib/python3.14/site-packages/resources/azure/network/network-interfaces.png" width="101px" height="101px" preserveAspectRatio="xMinYMin meet" x="619" y="-160.5"/>
<text text-anchor="middle" x="669.5" y="-45.1" font-family="Sans-Serif" font-size="13.00" fill="#2d3436">VM NIC</text>
</g>
<!-- caef0300993b47a1be50734b0119e10a&#45;&gt;7f7d2024c26b4cdc84e488715b2f5536 -->
<g id="edge4" class="edge">
<title>caef0300993b47a1be50734b0119e10a&#45;&gt;7f7d2024c26b4cdc84e488715b2f5536</title>
<path fill="none" stroke="#7b8894" d="M564.15,-132.5C581.68,-132.5 601.31,-132.5 618.84,-132.5"/>
</g>
<!-- 8c7ba492377d47a0b6b1b0d0c2720a4c -->
<g id="node8" class="node">
<title>8c7ba492377d47a0b6b1b0d0c2720a4c</title>
<image xlink:href="/usr/local/python/current/lib/python3.14/site-packages/resources/azure/compute/vm.png" width="101px" height="101px" preserveAspectRatio="xMinYMin meet" x="775" y="-183.5"/>
<text text-anchor="middle" x="825.5" y="-68.1" font-family="Sans-Serif" font-size="13.00" fill="#2d3436">App VM</text>
</g>
<!-- caef0300993b47a1be50734b0119e10a&#45;&gt;8c7ba492377d47a0b6b1b0d0c2720a4c -->
<g id="edge8" class="edge">
<title>caef0300993b47a1be50734b0119e10a&#45;&gt;8c7ba492377d47a0b6b1b0d0c2720a4c</title>
<path fill="none" stroke="#7b8894" d="M564.32,-190C564.32,-190 764.96,-190 764.96,-190"/>
<polygon fill="#7b8894" stroke="#7b8894" points="764.96,-193.5 774.96,-190 764.96,-186.5 764.96,-193.5"/>
</g>
<!-- 7f7d2024c26b4cdc84e488715b2f5536&#45;&gt;8c7ba492377d47a0b6b1b0d0c2720a4c -->
<g id="edge5" class="edge">
<title>7f7d2024c26b4cdc84e488715b2f5536&#45;&gt;8c7ba492377d47a0b6b1b0d0c2720a4c</title>
<path fill="none" stroke="#7b8894" d="M720.15,-121.5C737.68,-121.5 757.31,-121.5 774.84,-121.5"/>
</g>
</g>
</svg>
