<?xml version="1.0" encoding="UTF-8" standalone="no"?>
<!DOCTYPE svg PUBLIC "-//W3C//DTD SVG 1.1//EN"
 "http://www.w3.org/Graphics/SVG/1.1/DTD/svg11.dtd">
<!-- Generated by graphviz version 14.1.1 (20251213.1925)
 -->
<!-- Title: RAPP Platform Architecture Pages: 1 -->
<svg width="5295pt" height="4424pt"
 viewBox="0.00 0.00 5295.00 4424.00" xmlns="http://www.w3.org/2000/svg" xmlns:xlink="http://www.w3.org/1999/xlink">
<g id="graph0" class="graph" transform="scale(4.16667 4.16667) rotate(0) translate(72 989.75)">
<title>RAPP Platform Architecture</title>
<polygon fill="#fafafa" stroke="none" points="-72,72 -72,-989.75 1198.75,-989.75 1198.75,72 -72,72"/>
<text xml:space="preserve" text-anchor="middle" x="563.38" y="-11.65" font-family="Segoe UI Semibold" font-size="18.00" fill="#2d3436">RAPP Platform Architecture</text>
<g id="clust1" class="cluster">
<title>cluster_API Gateway</title>
<path fill="#e5f5fd" stroke="#aeb6be" d="M501.1,-386.75C501.1,-386.75 593.9,-386.75 593.9,-386.75 599.9,-386.75 605.9,-392.75 605.9,-398.75 605.9,-398.75 605.9,-550.75 605.9,-550.75 605.9,-556.75 599.9,-562.75 593.9,-562.75 593.9,-562.75 501.1,-562.75 501.1,-562.75 495.1,-562.75 489.1,-556.75 489.1,-550.75 489.1,-550.75 489.1,-398.75 489.1,-398.75 489.1,-392.75 495.1,-386.75 501.1,-386.75"/>
<text xml:space="preserve" text-anchor="middle" x="530.85" y="-547.35" font-family="Sans-Serif" font-size="12.00" fill="#2d3436">API Gateway</text>
</g>
<g id="clust2" class="cluster">
<title>cluster_Compute Layer</title>
<path fill="#e5f5fd" stroke="#aeb6be" d="M740.65,-386.75C740.65,-386.75 833.45,-386.75 833.45,-386.75 839.45,-386.75 845.45,-392.75 845.45,-398.75 845.45,-398.75 845.45,-550.75 845.45,-550.75 845.45,-556.75 839.45,-562.75 833.45,-562.75 833.45,-562.75 740.65,-562.75 740.65,-562.75 734.65,-562.75 728.65,-556.75 728.65,-550.75 728.65,-550.75 728.65,-398.75 728.65,-398.75 728.65,-392.75 734.65,-386.75 740.65,-386.75"/>
<text xml:space="preserve" text-anchor="middle" x="776.4" y="-547.35" font-family="Sans-Serif" font-size="12.00" fill="#2d3436">Compute Layer</text>
</g>
<g id="clust3" class="cluster">
<title>cluster_AI Services</title>
<path fill="#e5f5fd" stroke="#aeb6be" d="M1013.95,-733.75C1013.95,-733.75 1106.75,-733.75 1106.75,-733.75 1112.75,-733.75 1118.75,-739.75 1118.75,-745.75 1118.75,-745.75 1118.75,-897.75 1118.75,-897.75 1118.75,-903.75 1112.75,-909.75 1106.75,-909.75 1106.75,-909.75 1013.95,-909.75 1013.95,-909.75 1007.95,-909.75 1001.95,-903.75 1001.95,-897.75 1001.95,-897.75 1001.95,-745.75 1001.95,-745.75 1001.95,-739.75 1007.95,-733.75 1013.95,-733.75"/>
<text xml:space="preserve" text-anchor="middle" x="1039.2" y="-894.35" font-family="Sans-Serif" font-size="12.00" fill="#2d3436">AI Services</text>
</g>
<g id="clust4" class="cluster">
<title>cluster_Data Layer</title>
<path fill="#e5f5fd" stroke="#aeb6be" d="M1013.95,-271.75C1013.95,-271.75 1106.75,-271.75 1106.75,-271.75 1112.75,-271.75 1118.75,-277.75 1118.75,-283.75 1118.75,-283.75 1118.75,-666.75 1118.75,-666.75 1118.75,-672.75 1112.75,-678.75 1106.75,-678.75 1106.75,-678.75 1013.95,-678.75 1013.95,-678.75 1007.95,-678.75 1001.95,-672.75 1001.95,-666.75 1001.95,-666.75 1001.95,-283.75 1001.95,-283.75 1001.95,-277.75 1007.95,-271.75 1013.95,-271.75"/>
<text xml:space="preserve" text-anchor="middle" x="1038.08" y="-663.35" font-family="Sans-Serif" font-size="12.00" fill="#2d3436">Data Layer</text>
</g>
<g id="clust5" class="cluster">
<title>cluster_Security</title>
<path fill="#e5f5fd" stroke="#aeb6be" d="M1013.95,-40.75C1013.95,-40.75 1106.75,-40.75 1106.75,-40.75 1112.75,-40.75 1118.75,-46.75 1118.75,-52.75 1118.75,-52.75 1118.75,-204.75 1118.75,-204.75 1118.75,-210.75 1112.75,-216.75 1106.75,-216.75 1106.75,-216.75 1013.95,-216.75 1013.95,-216.75 1007.95,-216.75 1001.95,-210.75 1001.95,-204.75 1001.95,-204.75 1001.95,-52.75 1001.95,-52.75 1001.95,-46.75 1007.95,-40.75 1013.95,-40.75"/>
<text xml:space="preserve" text-anchor="middle" x="1030.95" y="-201.35" font-family="Sans-Serif" font-size="12.00" fill="#2d3436">Security</text>
</g>
<!-- 54af0fd9b62b4199b0fef659ad79ac0a -->
<g id="node1" class="node">
<title>54af0fd9b62b4199b0fef659ad79ac0a</title>
<image xlink:href="C:\Users\billwhalen\AppData\Roaming\Python\Python314\site-packages\resources/azure/integration\api-management.png" width="100.8px" height="100.8px" preserveAspectRatio="xMinYMin meet" x="497.1" y="-513.15"/>
<text xml:space="preserve" text-anchor="middle" x="547.5" y="-400.55" font-family="Segoe UI" font-size="14.00" fill="#2d3436">API Management</text>
</g>
<!-- 21a569b797744d1a93a503b76ca5bf74 -->
<g id="node2" class="node">
<title>21a569b797744d1a93a503b76ca5bf74</title>
<image xlink:href="C:\Users\billwhalen\AppData\Roaming\Python\Python314\site-packages\resources/azure/compute\function-apps.png" width="100.8px" height="100.8px" preserveAspectRatio="xMinYMin meet" x="736.65" y="-513.15"/>
<text xml:space="preserve" text-anchor="middle" x="787.05" y="-400.55" font-family="Segoe UI" font-size="14.00" fill="#2d3436">RAPP Core</text>
</g>
<!-- 54af0fd9b62b4199b0fef659ad79ac0a&#45;&gt;21a569b797744d1a93a503b76ca5bf74 -->
<g id="edge3" class="edge">
<title>54af0fd9b62b4199b0fef659ad79ac0a&#45;&gt;21a569b797744d1a93a503b76ca5bf74</title>
<path fill="none" stroke="#0078d4" stroke-width="2.5" d="M597.72,-462.75C597.72,-462.75 721.11,-462.75 721.11,-462.75"/>
<polygon fill="#0078d4" stroke="#0078d4" stroke-width="2.5" points="721.11,-466.95 733.11,-462.75 721.11,-458.55 721.11,-466.95"/>
<text xml:space="preserve" text-anchor="middle" x="667.27" y="-466.9" font-family="Sans-Serif" font-size="13.00" fill="#2d3436">REST</text>
</g>
<!-- 710c16cd5c38481a8f50dd1b974fa112 -->
<g id="node3" class="node">
<title>710c16cd5c38481a8f50dd1b974fa112</title>
<image xlink:href="C:\Users\billwhalen\AppData\Roaming\Python\Python314\site-packages\resources/azure/ml\cognitive-services.png" width="100.8px" height="100.8px" preserveAspectRatio="xMinYMin meet" x="1009.95" y="-860.15"/>
<text xml:space="preserve" text-anchor="middle" x="1060.35" y="-747.55" font-family="Segoe UI" font-size="14.00" fill="#2d3436">Azure OpenAI</text>
</g>
<!-- 21a569b797744d1a93a503b76ca5bf74&#45;&gt;710c16cd5c38481a8f50dd1b974fa112 -->
<g id="edge4" class="edge">
<title>21a569b797744d1a93a503b76ca5bf74&#45;&gt;710c16cd5c38481a8f50dd1b974fa112</title>
<path fill="none" stroke="#0078d4" stroke-width="2.5" d="M786.75,-530.89C786.75,-631.95 786.75,-809.75 786.75,-809.75 786.75,-809.75 994.38,-809.75 994.38,-809.75"/>
<polygon fill="#0078d4" stroke="#0078d4" stroke-width="2.5" points="994.38,-813.95 1006.38,-809.75 994.38,-805.55 994.38,-813.95"/>
<text xml:space="preserve" text-anchor="middle" x="923.7" y="-755.9" font-family="Sans-Serif" font-size="13.00" fill="#2d3436">Completion</text>
</g>
<!-- 9a7104e342f547d0a208f57d2fcba8e6 -->
<g id="node4" class="node">
<title>9a7104e342f547d0a208f57d2fcba8e6</title>
<image xlink:href="C:\Users\billwhalen\AppData\Roaming\Python\Python314\site-packages\resources/azure/database\cosmos-db.png" width="100.8px" height="100.8px" preserveAspectRatio="xMinYMin meet" x="1009.95" y="-629.15"/>
<text xml:space="preserve" text-anchor="middle" x="1060.35" y="-516.55" font-family="Segoe UI" font-size="14.00" fill="#2d3436">Cosmos DB</text>
</g>
<!-- 21a569b797744d1a93a503b76ca5bf74&#45;&gt;9a7104e342f547d0a208f57d2fcba8e6 -->
<g id="edge5" class="edge">
<title>21a569b797744d1a93a503b76ca5bf74&#45;&gt;9a7104e342f547d0a208f57d2fcba8e6</title>
<path fill="none" stroke="#0078d4" stroke-width="2.5" d="M837.18,-520.75C837.18,-520.75 994.29,-520.75 994.29,-520.75"/>
<polygon fill="#0078d4" stroke="#0078d4" stroke-width="2.5" points="994.29,-524.95 1006.29,-520.75 994.29,-516.55 994.29,-524.95"/>
<text xml:space="preserve" text-anchor="middle" x="923.7" y="-553.9" font-family="Sans-Serif" font-size="13.00" fill="#2d3436">State</text>
</g>
<!-- d4c0180f35c34d79a9e2e3aee1aac1c1 -->
<g id="node5" class="node">
<title>d4c0180f35c34d79a9e2e3aee1aac1c1</title>
<image xlink:href="C:\Users\billwhalen\AppData\Roaming\Python\Python314\site-packages\resources/azure/storage\blob-storage.png" width="100.8px" height="100.8px" preserveAspectRatio="xMinYMin meet" x="1009.95" y="-398.15"/>
<text xml:space="preserve" text-anchor="middle" x="1060.35" y="-285.55" font-family="Segoe UI" font-size="14.00" fill="#2d3436">Blob Storage</text>
</g>
<!-- 21a569b797744d1a93a503b76ca5bf74&#45;&gt;d4c0180f35c34d79a9e2e3aee1aac1c1 -->
<g id="edge6" class="edge">
<title>21a569b797744d1a93a503b76ca5bf74&#45;&gt;d4c0180f35c34d79a9e2e3aee1aac1c1</title>
<path fill="none" stroke="#0078d4" stroke-width="2.5" d="M837.18,-405.25C837.18,-405.25 994.29,-405.25 994.29,-405.25"/>
<polygon fill="#0078d4" stroke="#0078d4" stroke-width="2.5" points="994.29,-409.45 1006.29,-405.25 994.29,-401.05 994.29,-409.45"/>
<text xml:space="preserve" text-anchor="middle" x="923.7" y="-380.9" font-family="Sans-Serif" font-size="13.00" fill="#2d3436">Files</text>
</g>
<!-- fa633d23fbea4c9dade6a9919f771732 -->
<g id="node6" class="node">
<title>fa633d23fbea4c9dade6a9919f771732</title>
<image xlink:href="C:\Users\billwhalen\AppData\Roaming\Python\Python314\site-packages\resources/azure/security\key-vaults.png" width="100.8px" height="100.8px" preserveAspectRatio="xMinYMin meet" x="1009.95" y="-167.15"/>
<text xml:space="preserve" text-anchor="middle" x="1060.35" y="-54.55" font-family="Segoe UI" font-size="14.00" fill="#2d3436">Key Vault</text>
</g>
<!-- 21a569b797744d1a93a503b76ca5bf74&#45;&gt;fa633d23fbea4c9dade6a9919f771732 -->
<g id="edge7" class="edge">
<title>21a569b797744d1a93a503b76ca5bf74&#45;&gt;fa633d23fbea4c9dade6a9919f771732</title>
<path fill="none" stroke="#0078d4" stroke-width="2.5" d="M786.75,-394.39C786.75,-293.56 786.75,-116.75 786.75,-116.75 786.75,-116.75 994.38,-116.75 994.38,-116.75"/>
<polygon fill="#0078d4" stroke="#0078d4" stroke-width="2.5" points="994.38,-120.95 1006.38,-116.75 994.38,-112.55 994.38,-120.95"/>
<text xml:space="preserve" text-anchor="middle" x="923.7" y="-207.9" font-family="Sans-Serif" font-size="13.00" fill="#2d3436">Secrets</text>
</g>
<!-- a6ec61f393994107bd20a22e1687cab0 -->
<g id="node7" class="node">
<title>a6ec61f393994107bd20a22e1687cab0</title>
<image xlink:href="C:\Users\billwhalen\AppData\Roaming\Python\Python314\site-packages\resources/onprem/client\users.png" width="100.8px" height="100.8px" preserveAspectRatio="xMinYMin meet" x="8.52651e-14" y="-513.15"/>
<text xml:space="preserve" text-anchor="middle" x="50.4" y="-400.55" font-family="Segoe UI" font-size="14.00" fill="#2d3436">User</text>
</g>
<!-- 70f3583b37ae4f6e819ff92c8372a42e -->
<g id="node8" class="node">
<title>70f3583b37ae4f6e819ff92c8372a42e</title>
<image xlink:href="C:\Users\billwhalen\AppData\Roaming\Python\Python314\site-packages\resources/saas/chat\teams.png" width="100.8px" height="100.8px" preserveAspectRatio="xMinYMin meet" x="235.05" y="-513.15"/>
<text xml:space="preserve" text-anchor="middle" x="285.45" y="-400.55" font-family="Segoe UI" font-size="14.00" fill="#2d3436">MS Teams</text>
</g>
<!-- a6ec61f393994107bd20a22e1687cab0&#45;&gt;70f3583b37ae4f6e819ff92c8372a42e -->
<g id="edge1" class="edge">
<title>a6ec61f393994107bd20a22e1687cab0&#45;&gt;70f3583b37ae4f6e819ff92c8372a42e</title>
<path fill="none" stroke="#0078d4" stroke-width="2.5" d="M100.54,-462.75C100.54,-462.75 219.61,-462.75 219.61,-462.75"/>
<polygon fill="#0078d4" stroke="#0078d4" stroke-width="2.5" points="219.61,-466.95 231.61,-462.75 219.61,-458.55 219.61,-466.95"/>
<text xml:space="preserve" text-anchor="middle" x="167.93" y="-466.9" font-family="Sans-Serif" font-size="13.00" fill="#2d3436">Chat</text>
</g>
<!-- 70f3583b37ae4f6e819ff92c8372a42e&#45;&gt;54af0fd9b62b4199b0fef659ad79ac0a -->
<g id="edge2" class="edge">
<title>70f3583b37ae4f6e819ff92c8372a42e&#45;&gt;54af0fd9b62b4199b0fef659ad79ac0a</title>
<path fill="none" stroke="#0078d4" stroke-width="2.5" d="M335.67,-462.75C335.67,-462.75 481.67,-462.75 481.67,-462.75"/>
<polygon fill="#0078d4" stroke="#0078d4" stroke-width="2.5" points="481.67,-466.95 493.67,-462.75 481.67,-458.55 481.67,-466.95"/>
<text xml:space="preserve" text-anchor="middle" x="416.48" y="-466.9" font-family="Sans-Serif" font-size="13.00" fill="#2d3436">Webhook</text>
</g>
</g>
</svg>
