<?xml version="1.0" encoding="UTF-8" standalone="no"?>
<!DOCTYPE svg PUBLIC "-//W3C//DTD SVG 1.1//EN"
 "http://www.w3.org/Graphics/SVG/1.1/DTD/svg11.dtd">
<!-- Generated by graphviz version 14.1.1 (20251213.1925)
 -->
<!-- Title: Zurn Elkay Competitive Intelligence Platform Pages: 1 -->
<svg width="8566pt" height="10145pt"
 viewBox="0.00 0.00 8566.00 10145.00" xmlns="http://www.w3.org/2000/svg" xmlns:xlink="http://www.w3.org/1999/xlink">
<g id="graph0" class="graph" transform="scale(4.16667 4.16667) rotate(0) translate(144 2290.8)">
<title>Zurn Elkay Competitive Intelligence Platform</title>
<polygon fill="white" stroke="none" points="-144,144 -144,-2290.8 1911.8,-2290.8 1911.8,144 -144,144"/>
<text xml:space="preserve" text-anchor="middle" x="883.9" y="-12" font-family="Segoe UI Semibold" font-size="20.00" fill="#2d3436">Zurn Elkay Competitive Intelligence Platform</text>
<!-- 5dd1dd74e93a414ba61b4d1278ea8360 -->
<g id="node1" class="node">
<title>5dd1dd74e93a414ba61b4d1278ea8360</title>
<image xlink:href="C:\Users\billwhalen\AppData\Roaming\Python\Python314\site-packages\resources/onprem/client\users.png" width="100.8px" height="100.8px" preserveAspectRatio="xMinYMin meet" x="8.52651e-14" y="-1111.8"/>
<text xml:space="preserve" text-anchor="middle" x="50.4" y="-999.75" font-family="Segoe UI" font-size="15.00" fill="#2d3436">Sales/Marketing</text>
</g>
<!-- a143079274ea45a3a5da2b3c0ef91576 -->
<g id="node2" class="node">
<title>a143079274ea45a3a5da2b3c0ef91576</title>
<image xlink:href="C:\Users\billwhalen\AppData\Roaming\Python\Python314\site-packages\resources/saas/chat\teams.png" width="100.8px" height="100.8px" preserveAspectRatio="xMinYMin meet" x="317.8" y="-1111.8"/>
<text xml:space="preserve" text-anchor="middle" x="368.2" y="-999.75" font-family="Segoe UI" font-size="15.00" fill="#2d3436">MS Teams</text>
</g>
<!-- 5dd1dd74e93a414ba61b4d1278ea8360&#45;&gt;a143079274ea45a3a5da2b3c0ef91576 -->
<g id="edge1" class="edge">
<title>5dd1dd74e93a414ba61b4d1278ea8360&#45;&gt;a143079274ea45a3a5da2b3c0ef91576</title>
<path fill="none" stroke="#0078d4" stroke-width="2.5" d="M100.74,-1061.4C155.01,-1061.4 242.43,-1061.4 302.24,-1061.4"/>
<polygon fill="#0078d4" stroke="#0078d4" stroke-width="2.5" points="302.16,-1065.6 314.16,-1061.4 302.16,-1057.2 302.16,-1065.6"/>
</g>
<!-- c4cc7a1e5b584146b43dac33fafd03b3 -->
<g id="node3" class="node">
<title>c4cc7a1e5b584146b43dac33fafd03b3</title>
<image xlink:href="C:\Users\billwhalen\AppData\Roaming\Python\Python314\site-packages\resources/azure/compute\function-apps.png" width="100.8px" height="100.8px" preserveAspectRatio="xMinYMin meet" x="669.1" y="-1111.8"/>
<text xml:space="preserve" text-anchor="middle" x="719.5" y="-999.75" font-family="Segoe UI" font-size="15.00" fill="#2d3436">CI Orchestrator</text>
</g>
<!-- a143079274ea45a3a5da2b3c0ef91576&#45;&gt;c4cc7a1e5b584146b43dac33fafd03b3 -->
<g id="edge2" class="edge">
<title>a143079274ea45a3a5da2b3c0ef91576&#45;&gt;c4cc7a1e5b584146b43dac33fafd03b3</title>
<path fill="none" stroke="#0078d4" stroke-width="2.5" d="M418.51,-1061.4C480.05,-1061.4 585.48,-1061.4 653.55,-1061.4"/>
<polygon fill="#0078d4" stroke="#0078d4" stroke-width="2.5" points="653.38,-1065.6 665.38,-1061.4 653.38,-1057.2 653.38,-1065.6"/>
<text xml:space="preserve" text-anchor="middle" x="543.85" y="-1065.55" font-family="Sans-Serif" font-size="13.00" fill="#2d3436">Query</text>
</g>
<!-- 7c86ace5f1a54ddeba929f8ad6f02e28 -->
<g id="node4" class="node">
<title>7c86ace5f1a54ddeba929f8ad6f02e28</title>
<image xlink:href="C:\Users\billwhalen\AppData\Roaming\Python\Python314\site-packages\resources/azure/compute\function-apps.png" width="100.8px" height="100.8px" preserveAspectRatio="xMinYMin meet" x="986.9" y="-2128.8"/>
<text xml:space="preserve" text-anchor="middle" x="1037.3" y="-2016.75" font-family="Segoe UI" font-size="15.00" fill="#2d3436">Drains Agent</text>
</g>
<!-- c4cc7a1e5b584146b43dac33fafd03b3&#45;&gt;7c86ace5f1a54ddeba929f8ad6f02e28 -->
<g id="edge3" class="edge">
<title>c4cc7a1e5b584146b43dac33fafd03b3&#45;&gt;7c86ace5f1a54ddeba929f8ad6f02e28</title>
<path fill="none" stroke="#0078d4" stroke-width="2.5" d="M740.18,-1129.58C783.07,-1277.37 888.99,-1638.06 986.9,-1937.4 993.07,-1956.26 999.97,-1976.45 1006.6,-1995.48"/>
<polygon fill="#0078d4" stroke="#0078d4" stroke-width="2.5" points="1002.54,-1996.6 1010.48,-2006.54 1010.47,-1993.82 1002.54,-1996.6"/>
</g>
<!-- 7e5a623b72dc47f88edb0c43638e1785 -->
<g id="node5" class="node">
<title>7e5a623b72dc47f88edb0c43638e1785</title>
<image xlink:href="C:\Users\billwhalen\AppData\Roaming\Python\Python314\site-packages\resources/azure/compute\function-apps.png" width="100.8px" height="100.8px" preserveAspectRatio="xMinYMin meet" x="986.9" y="-1847.8"/>
<text xml:space="preserve" text-anchor="middle" x="1037.3" y="-1735.75" font-family="Segoe UI" font-size="15.00" fill="#2d3436">Drinking Water Agent</text>
</g>
<!-- c4cc7a1e5b584146b43dac33fafd03b3&#45;&gt;7e5a623b72dc47f88edb0c43638e1785 -->
<g id="edge4" class="edge">
<title>c4cc7a1e5b584146b43dac33fafd03b3&#45;&gt;7e5a623b72dc47f88edb0c43638e1785</title>
<path fill="none" stroke="#0078d4" stroke-width="2.5" d="M749.78,-1129.65C808.01,-1265.36 938.13,-1568.6 1000.98,-1715.08"/>
<polygon fill="#0078d4" stroke="#0078d4" stroke-width="2.5" points="996.95,-1716.34 1005.54,-1725.71 1004.67,-1713.02 996.95,-1716.34"/>
</g>
<!-- 1d43287950aa480abdc9d7a5f7b01c90 -->
<g id="node6" class="node">
<title>1d43287950aa480abdc9d7a5f7b01c90</title>
<image xlink:href="C:\Users\billwhalen\AppData\Roaming\Python\Python314\site-packages\resources/azure/compute\function-apps.png" width="100.8px" height="100.8px" preserveAspectRatio="xMinYMin meet" x="986.9" y="-1566.8"/>
<text xml:space="preserve" text-anchor="middle" x="1037.3" y="-1454.75" font-family="Segoe UI" font-size="15.00" fill="#2d3436">Sinks Agent</text>
</g>
<!-- c4cc7a1e5b584146b43dac33fafd03b3&#45;&gt;1d43287950aa480abdc9d7a5f7b01c90 -->
<g id="edge5" class="edge">
<title>c4cc7a1e5b584146b43dac33fafd03b3&#45;&gt;1d43287950aa480abdc9d7a5f7b01c90</title>
<path fill="none" stroke="#0078d4" stroke-width="2.5" d="M767.78,-1129.52C824.55,-1211.31 919.65,-1348.33 980.11,-1435.45"/>
<polygon fill="#0078d4" stroke="#0078d4" stroke-width="2.5" points="976.51,-1437.62 986.8,-1445.08 983.41,-1432.83 976.51,-1437.62"/>
</g>
<!-- f41737e0b3d14f66ba14f52ae86fbddf -->
<g id="node7" class="node">
<title>f41737e0b3d14f66ba14f52ae86fbddf</title>
<image xlink:href="C:\Users\billwhalen\AppData\Roaming\Python\Python314\site-packages\resources/azure/compute\function-apps.png" width="100.8px" height="100.8px" preserveAspectRatio="xMinYMin meet" x="986.9" y="-1285.8"/>
<text xml:space="preserve" text-anchor="middle" x="1037.3" y="-1173.75" font-family="Segoe UI" font-size="15.00" fill="#2d3436">Commercial Brass Agent</text>
</g>
<!-- c4cc7a1e5b584146b43dac33fafd03b3&#45;&gt;f41737e0b3d14f66ba14f52ae86fbddf -->
<g id="edge6" class="edge">
<title>c4cc7a1e5b584146b43dac33fafd03b3&#45;&gt;f41737e0b3d14f66ba14f52ae86fbddf</title>
<path fill="none" stroke="#0078d4" stroke-width="2.5" d="M769.84,-1088.59C824.69,-1118.81 913.4,-1167.68 973.24,-1200.65"/>
<polygon fill="#0078d4" stroke="#0078d4" stroke-width="2.5" points="971.19,-1204.32 983.73,-1206.43 975.25,-1196.96 971.19,-1204.32"/>
</g>
<!-- 4e49fcf48d964682b3b22fffc4c0f77a -->
<g id="node8" class="node">
<title>4e49fcf48d964682b3b22fffc4c0f77a</title>
<image xlink:href="C:\Users\billwhalen\AppData\Roaming\Python\Python314\site-packages\resources/azure/compute\function-apps.png" width="100.8px" height="100.8px" preserveAspectRatio="xMinYMin meet" x="986.9" y="-1004.8"/>
<text xml:space="preserve" text-anchor="middle" x="1037.3" y="-892.75" font-family="Segoe UI" font-size="15.00" fill="#2d3436">Wilkins Agent</text>
</g>
<!-- c4cc7a1e5b584146b43dac33fafd03b3&#45;&gt;4e49fcf48d964682b3b22fffc4c0f77a -->
<g id="edge7" class="edge">
<title>c4cc7a1e5b584146b43dac33fafd03b3&#45;&gt;4e49fcf48d964682b3b22fffc4c0f77a</title>
<path fill="none" stroke="#0078d4" stroke-width="2.5" d="M769.84,-1044.68C824.34,-1026.22 912.28,-996.42 972.1,-976.15"/>
<polygon fill="#0078d4" stroke="#0078d4" stroke-width="2.5" points="973.44,-980.13 983.46,-972.3 970.75,-972.18 973.44,-980.13"/>
</g>
<!-- 301d7893765a4bc784504680dc851fdb -->
<g id="node10" class="node">
<title>301d7893765a4bc784504680dc851fdb</title>
<image xlink:href="C:\Users\billwhalen\AppData\Roaming\Python\Python314\site-packages\resources/azure/ml\cognitive-services.png" width="100.8px" height="100.8px" preserveAspectRatio="xMinYMin meet" x="1667" y="-830.8"/>
<text xml:space="preserve" text-anchor="middle" x="1717.4" y="-718.75" font-family="Segoe UI" font-size="15.00" fill="#2d3436">Azure OpenAI GPT&#45;4</text>
</g>
<!-- c4cc7a1e5b584146b43dac33fafd03b3&#45;&gt;301d7893765a4bc784504680dc851fdb -->
<g id="edge13" class="edge">
<title>c4cc7a1e5b584146b43dac33fafd03b3&#45;&gt;301d7893765a4bc784504680dc851fdb</title>
<path fill="none" stroke="#0078d4" stroke-width="2.5" d="M769.85,-994.34C817.85,-935.05 896.6,-852.27 986.9,-814.4 1215.59,-718.49 1520.67,-749.29 1651.91,-769.17"/>
<polygon fill="#0078d4" stroke="#0078d4" stroke-width="2.5" points="1651.17,-773.3 1663.67,-771 1652.46,-765 1651.17,-773.3"/>
<text xml:space="preserve" text-anchor="middle" x="1207.33" y="-763.52" font-family="Sans-Serif" font-size="13.00" fill="#2d3436">LLM</text>
</g>
<!-- ed159aa35ba0475885f227ee6568cc79 -->
<g id="node11" class="node">
<title>ed159aa35ba0475885f227ee6568cc79</title>
<image xlink:href="C:\Users\billwhalen\AppData\Roaming\Python\Python314\site-packages\resources/azure/database\cosmos-db.png" width="100.8px" height="100.8px" preserveAspectRatio="xMinYMin meet" x="986.9" y="-434.8"/>
<text xml:space="preserve" text-anchor="middle" x="1037.3" y="-322.75" font-family="Segoe UI" font-size="15.00" fill="#2d3436">Cosmos DB</text>
</g>
<!-- c4cc7a1e5b584146b43dac33fafd03b3&#45;&gt;ed159aa35ba0475885f227ee6568cc79 -->
<g id="edge15" class="edge">
<title>c4cc7a1e5b584146b43dac33fafd03b3&#45;&gt;ed159aa35ba0475885f227ee6568cc79</title>
<path fill="none" stroke="#0078d4" stroke-width="2.5" d="M732.29,-993.25C751.66,-893.24 796.44,-703.13 877.9,-560.4 903.9,-514.85 943.32,-470.99 976.33,-438.45"/>
<polygon fill="#0078d4" stroke="#0078d4" stroke-width="2.5" points="978.85,-441.86 984.54,-430.49 973,-435.83 978.85,-441.86"/>
</g>
<!-- d2cbf588196b4cb5a5f4447f337f4581 -->
<g id="node12" class="node">
<title>d2cbf588196b4cb5a5f4447f337f4581</title>
<image xlink:href="C:\Users\billwhalen\AppData\Roaming\Python\Python314\site-packages\resources/azure/storage\blob-storage.png" width="100.8px" height="100.8px" preserveAspectRatio="xMinYMin meet" x="986.9" y="-153.8"/>
<text xml:space="preserve" text-anchor="middle" x="1037.3" y="-41.75" font-family="Segoe UI" font-size="15.00" fill="#2d3436">Blob Storage</text>
</g>
<!-- c4cc7a1e5b584146b43dac33fafd03b3&#45;&gt;d2cbf588196b4cb5a5f4447f337f4581 -->
<g id="edge16" class="edge">
<title>c4cc7a1e5b584146b43dac33fafd03b3&#45;&gt;d2cbf588196b4cb5a5f4447f337f4581</title>
<path fill="none" stroke="#0078d4" stroke-width="2.5" d="M738.76,-993.08C766.56,-890.56 822.17,-691.18 877.9,-524.4 917.53,-405.79 969.56,-270.84 1002.97,-186.4"/>
<polygon fill="#0078d4" stroke="#0078d4" stroke-width="2.5" points="1006.87,-187.97 1007.39,-175.27 999.06,-184.87 1006.87,-187.97"/>
</g>
<!-- 6167b93014044a16bfb0d0de9f6a5ed9 -->
<g id="node9" class="node">
<title>6167b93014044a16bfb0d0de9f6a5ed9</title>
<image xlink:href="C:\Users\billwhalen\AppData\Roaming\Python\Python314\site-packages\resources/azure/compute\function-apps.png" width="100.8px" height="100.8px" preserveAspectRatio="xMinYMin meet" x="1326.95" y="-1392.8"/>
<text xml:space="preserve" text-anchor="middle" x="1377.35" y="-1280.75" font-family="Segoe UI" font-size="15.00" fill="#2d3436">Cross&#45;BU Synthesizer</text>
</g>
<!-- 7c86ace5f1a54ddeba929f8ad6f02e28&#45;&gt;6167b93014044a16bfb0d0de9f6a5ed9 -->
<g id="edge8" class="edge">
<title>7c86ace5f1a54ddeba929f8ad6f02e28&#45;&gt;6167b93014044a16bfb0d0de9f6a5ed9</title>
<path fill="none" stroke="#0078d4" stroke-width="2.5" d="M1069.65,-2010.15C1131.98,-1874.44 1271.26,-1571.2 1338.54,-1424.72"/>
<polygon fill="#0078d4" stroke="#0078d4" stroke-width="2.5" points="1342.25,-1426.71 1343.44,-1414.05 1334.61,-1423.21 1342.25,-1426.71"/>
</g>
<!-- 7e5a623b72dc47f88edb0c43638e1785&#45;&gt;6167b93014044a16bfb0d0de9f6a5ed9 -->
<g id="edge9" class="edge">
<title>7e5a623b72dc47f88edb0c43638e1785&#45;&gt;6167b93014044a16bfb0d0de9f6a5ed9</title>
<path fill="none" stroke="#0078d4" stroke-width="2.5" d="M1087.46,-1731.24C1148.54,-1649.02 1252.67,-1508.87 1317.82,-1421.18"/>
<polygon fill="#0078d4" stroke="#0078d4" stroke-width="2.5" points="1321.09,-1423.82 1324.88,-1411.68 1314.35,-1418.81 1321.09,-1423.82"/>
</g>
<!-- 1d43287950aa480abdc9d7a5f7b01c90&#45;&gt;6167b93014044a16bfb0d0de9f6a5ed9 -->
<g id="edge10" class="edge">
<title>1d43287950aa480abdc9d7a5f7b01c90&#45;&gt;6167b93014044a16bfb0d0de9f6a5ed9</title>
<path fill="none" stroke="#0078d4" stroke-width="2.5" d="M1087.46,-1491.1C1147.17,-1460.36 1248,-1408.47 1313.35,-1374.83"/>
<polygon fill="#0078d4" stroke="#0078d4" stroke-width="2.5" points="1315.02,-1378.69 1323.77,-1369.46 1311.18,-1371.22 1315.02,-1378.69"/>
</g>
<!-- f41737e0b3d14f66ba14f52ae86fbddf&#45;&gt;6167b93014044a16bfb0d0de9f6a5ed9 -->
<g id="edge11" class="edge">
<title>f41737e0b3d14f66ba14f52ae86fbddf&#45;&gt;6167b93014044a16bfb0d0de9f6a5ed9</title>
<path fill="none" stroke="#0078d4" stroke-width="2.5" d="M1087.46,-1250.96C1146.79,-1269.74 1246.73,-1301.37 1312.11,-1322.07"/>
<polygon fill="#0078d4" stroke="#0078d4" stroke-width="2.5" points="1310.82,-1326.06 1323.53,-1325.68 1313.35,-1318.06 1310.82,-1326.06"/>
</g>
<!-- 4e49fcf48d964682b3b22fffc4c0f77a&#45;&gt;6167b93014044a16bfb0d0de9f6a5ed9 -->
<g id="edge12" class="edge">
<title>4e49fcf48d964682b3b22fffc4c0f77a&#45;&gt;6167b93014044a16bfb0d0de9f6a5ed9</title>
<path fill="none" stroke="#0078d4" stroke-width="2.5" d="M1087.46,-1010.82C1148.29,-1080.65 1251.82,-1199.46 1317.01,-1274.3"/>
<polygon fill="#0078d4" stroke="#0078d4" stroke-width="2.5" points="1313.6,-1276.77 1324.65,-1283.06 1319.93,-1271.25 1313.6,-1276.77"/>
</g>
<!-- 6167b93014044a16bfb0d0de9f6a5ed9&#45;&gt;301d7893765a4bc784504680dc851fdb -->
<g id="edge14" class="edge">
<title>6167b93014044a16bfb0d0de9f6a5ed9&#45;&gt;301d7893765a4bc784504680dc851fdb</title>
<path fill="none" stroke="#0078d4" stroke-width="2.5" d="M1419.46,-1274.05C1481.88,-1170.29 1600.33,-973.37 1667.22,-862.17"/>
<polygon fill="#0078d4" stroke="#0078d4" stroke-width="2.5" points="1670.77,-864.4 1673.36,-851.96 1663.57,-860.07 1670.77,-864.4"/>
<text xml:space="preserve" text-anchor="middle" x="1547.38" y="-1082.4" font-family="Sans-Serif" font-size="13.00" fill="#2d3436">LLM</text>
</g>
</g>
</svg>
